<mxfile host="app.diagrams.net" agent="Mozilla/5.0 (Windows NT 10.0; Win64; x64) AppleWebKit/537.36 (KHTML, like Gecko) Chrome/129.0.0.0 Safari/537.36" version="24.8.3">
  <diagram name="1 oldal" id="6WJGjurnDq18iB8I7gFS">
    <mxGraphModel dx="2605" dy="2785" grid="1" gridSize="10" guides="1" tooltips="1" connect="1" arrows="1" fold="1" page="1" pageScale="1" pageWidth="827" pageHeight="1169" math="0" shadow="0">
      <root>
        <mxCell id="0" />
        <mxCell id="1" parent="0" />
        <mxCell id="30rDKYGMFZMRvSmP9YPS-1" value="" style="ellipse;whiteSpace=wrap;html=1;aspect=fixed;" vertex="1" parent="1">
          <mxGeometry x="100" y="110" width="40" height="40" as="geometry" />
        </mxCell>
        <mxCell id="30rDKYGMFZMRvSmP9YPS-2" value="" style="endArrow=none;html=1;rounded=0;exitX=0.5;exitY=1;exitDx=0;exitDy=0;" edge="1" parent="1" source="30rDKYGMFZMRvSmP9YPS-1">
          <mxGeometry width="50" height="50" relative="1" as="geometry">
            <mxPoint x="440" y="400" as="sourcePoint" />
            <mxPoint x="120" y="210" as="targetPoint" />
          </mxGeometry>
        </mxCell>
        <mxCell id="30rDKYGMFZMRvSmP9YPS-3" value="" style="endArrow=none;html=1;rounded=0;" edge="1" parent="1">
          <mxGeometry width="50" height="50" relative="1" as="geometry">
            <mxPoint x="120" y="210" as="sourcePoint" />
            <mxPoint x="150" y="250" as="targetPoint" />
          </mxGeometry>
        </mxCell>
        <mxCell id="30rDKYGMFZMRvSmP9YPS-4" value="" style="endArrow=none;html=1;rounded=0;" edge="1" parent="1">
          <mxGeometry width="50" height="50" relative="1" as="geometry">
            <mxPoint x="120" y="210" as="sourcePoint" />
            <mxPoint x="90" y="250" as="targetPoint" />
          </mxGeometry>
        </mxCell>
        <mxCell id="30rDKYGMFZMRvSmP9YPS-5" value="" style="endArrow=none;html=1;rounded=0;" edge="1" parent="1">
          <mxGeometry width="50" height="50" relative="1" as="geometry">
            <mxPoint x="80" y="170" as="sourcePoint" />
            <mxPoint x="160" y="170" as="targetPoint" />
          </mxGeometry>
        </mxCell>
        <mxCell id="30rDKYGMFZMRvSmP9YPS-6" value="" style="ellipse;whiteSpace=wrap;html=1;aspect=fixed;" vertex="1" parent="1">
          <mxGeometry x="110" y="737" width="40" height="40" as="geometry" />
        </mxCell>
        <mxCell id="30rDKYGMFZMRvSmP9YPS-7" value="" style="endArrow=none;html=1;rounded=0;exitX=0.5;exitY=1;exitDx=0;exitDy=0;" edge="1" parent="1" source="30rDKYGMFZMRvSmP9YPS-6">
          <mxGeometry width="50" height="50" relative="1" as="geometry">
            <mxPoint x="450" y="1027" as="sourcePoint" />
            <mxPoint x="130" y="837" as="targetPoint" />
          </mxGeometry>
        </mxCell>
        <mxCell id="30rDKYGMFZMRvSmP9YPS-8" value="" style="endArrow=none;html=1;rounded=0;" edge="1" parent="1">
          <mxGeometry width="50" height="50" relative="1" as="geometry">
            <mxPoint x="130" y="837" as="sourcePoint" />
            <mxPoint x="160" y="877" as="targetPoint" />
          </mxGeometry>
        </mxCell>
        <mxCell id="30rDKYGMFZMRvSmP9YPS-9" value="" style="endArrow=none;html=1;rounded=0;" edge="1" parent="1">
          <mxGeometry width="50" height="50" relative="1" as="geometry">
            <mxPoint x="130" y="837" as="sourcePoint" />
            <mxPoint x="100" y="877" as="targetPoint" />
          </mxGeometry>
        </mxCell>
        <mxCell id="30rDKYGMFZMRvSmP9YPS-10" value="" style="endArrow=none;html=1;rounded=0;" edge="1" parent="1">
          <mxGeometry width="50" height="50" relative="1" as="geometry">
            <mxPoint x="90" y="797" as="sourcePoint" />
            <mxPoint x="170" y="797" as="targetPoint" />
          </mxGeometry>
        </mxCell>
        <mxCell id="30rDKYGMFZMRvSmP9YPS-11" value="" style="ellipse;whiteSpace=wrap;html=1;aspect=fixed;" vertex="1" parent="1">
          <mxGeometry x="110" y="1241" width="40" height="40" as="geometry" />
        </mxCell>
        <mxCell id="30rDKYGMFZMRvSmP9YPS-12" value="" style="endArrow=none;html=1;rounded=0;exitX=0.5;exitY=1;exitDx=0;exitDy=0;" edge="1" parent="1" source="30rDKYGMFZMRvSmP9YPS-11">
          <mxGeometry width="50" height="50" relative="1" as="geometry">
            <mxPoint x="450" y="1531" as="sourcePoint" />
            <mxPoint x="130" y="1341" as="targetPoint" />
          </mxGeometry>
        </mxCell>
        <mxCell id="30rDKYGMFZMRvSmP9YPS-13" value="" style="endArrow=none;html=1;rounded=0;" edge="1" parent="1">
          <mxGeometry width="50" height="50" relative="1" as="geometry">
            <mxPoint x="130" y="1341" as="sourcePoint" />
            <mxPoint x="160" y="1381" as="targetPoint" />
          </mxGeometry>
        </mxCell>
        <mxCell id="30rDKYGMFZMRvSmP9YPS-14" value="" style="endArrow=none;html=1;rounded=0;" edge="1" parent="1">
          <mxGeometry width="50" height="50" relative="1" as="geometry">
            <mxPoint x="130" y="1341" as="sourcePoint" />
            <mxPoint x="100" y="1381" as="targetPoint" />
          </mxGeometry>
        </mxCell>
        <mxCell id="30rDKYGMFZMRvSmP9YPS-15" value="" style="endArrow=none;html=1;rounded=0;" edge="1" parent="1">
          <mxGeometry width="50" height="50" relative="1" as="geometry">
            <mxPoint x="90" y="1301" as="sourcePoint" />
            <mxPoint x="170" y="1301" as="targetPoint" />
          </mxGeometry>
        </mxCell>
        <mxCell id="30rDKYGMFZMRvSmP9YPS-17" value="" style="ellipse;whiteSpace=wrap;html=1;aspect=fixed;" vertex="1" parent="1">
          <mxGeometry x="2239" y="897" width="40" height="40" as="geometry" />
        </mxCell>
        <mxCell id="30rDKYGMFZMRvSmP9YPS-18" value="" style="endArrow=none;html=1;rounded=0;exitX=0.5;exitY=1;exitDx=0;exitDy=0;" edge="1" parent="1" source="30rDKYGMFZMRvSmP9YPS-17">
          <mxGeometry width="50" height="50" relative="1" as="geometry">
            <mxPoint x="2579" y="1187" as="sourcePoint" />
            <mxPoint x="2259" y="997" as="targetPoint" />
          </mxGeometry>
        </mxCell>
        <mxCell id="30rDKYGMFZMRvSmP9YPS-19" value="" style="endArrow=none;html=1;rounded=0;" edge="1" parent="1">
          <mxGeometry width="50" height="50" relative="1" as="geometry">
            <mxPoint x="2259" y="997" as="sourcePoint" />
            <mxPoint x="2289" y="1037" as="targetPoint" />
          </mxGeometry>
        </mxCell>
        <mxCell id="30rDKYGMFZMRvSmP9YPS-20" value="" style="endArrow=none;html=1;rounded=0;" edge="1" parent="1">
          <mxGeometry width="50" height="50" relative="1" as="geometry">
            <mxPoint x="2259" y="997" as="sourcePoint" />
            <mxPoint x="2229" y="1037" as="targetPoint" />
          </mxGeometry>
        </mxCell>
        <mxCell id="30rDKYGMFZMRvSmP9YPS-21" value="" style="endArrow=none;html=1;rounded=0;" edge="1" parent="1">
          <mxGeometry width="50" height="50" relative="1" as="geometry">
            <mxPoint x="2219" y="957" as="sourcePoint" />
            <mxPoint x="2299" y="957" as="targetPoint" />
          </mxGeometry>
        </mxCell>
        <mxCell id="30rDKYGMFZMRvSmP9YPS-27" value="" style="ellipse;whiteSpace=wrap;html=1;aspect=fixed;" vertex="1" parent="1">
          <mxGeometry x="110" y="1581" width="40" height="40" as="geometry" />
        </mxCell>
        <mxCell id="30rDKYGMFZMRvSmP9YPS-28" value="" style="endArrow=none;html=1;rounded=0;exitX=0.5;exitY=1;exitDx=0;exitDy=0;" edge="1" source="30rDKYGMFZMRvSmP9YPS-27" parent="1">
          <mxGeometry width="50" height="50" relative="1" as="geometry">
            <mxPoint x="450" y="1871" as="sourcePoint" />
            <mxPoint x="130" y="1681" as="targetPoint" />
          </mxGeometry>
        </mxCell>
        <mxCell id="30rDKYGMFZMRvSmP9YPS-29" value="" style="endArrow=none;html=1;rounded=0;" edge="1" parent="1">
          <mxGeometry width="50" height="50" relative="1" as="geometry">
            <mxPoint x="130" y="1681" as="sourcePoint" />
            <mxPoint x="160" y="1721" as="targetPoint" />
          </mxGeometry>
        </mxCell>
        <mxCell id="30rDKYGMFZMRvSmP9YPS-30" value="" style="endArrow=none;html=1;rounded=0;" edge="1" parent="1">
          <mxGeometry width="50" height="50" relative="1" as="geometry">
            <mxPoint x="130" y="1681" as="sourcePoint" />
            <mxPoint x="100" y="1721" as="targetPoint" />
          </mxGeometry>
        </mxCell>
        <mxCell id="30rDKYGMFZMRvSmP9YPS-31" value="" style="endArrow=none;html=1;rounded=0;" edge="1" parent="1">
          <mxGeometry width="50" height="50" relative="1" as="geometry">
            <mxPoint x="90" y="1641" as="sourcePoint" />
            <mxPoint x="170" y="1641" as="targetPoint" />
          </mxGeometry>
        </mxCell>
        <mxCell id="30rDKYGMFZMRvSmP9YPS-33" value="&lt;font style=&quot;font-size: 24px;&quot;&gt;Látogató&lt;/font&gt;" style="text;html=1;align=center;verticalAlign=middle;whiteSpace=wrap;rounded=0;" vertex="1" parent="1">
          <mxGeometry x="65" y="260" width="110" height="30" as="geometry" />
        </mxCell>
        <mxCell id="30rDKYGMFZMRvSmP9YPS-34" value="&lt;font style=&quot;font-size: 24px;&quot;&gt;Bejelentkezett szálláshirdető felh.&lt;/font&gt;" style="text;html=1;align=center;verticalAlign=middle;whiteSpace=wrap;rounded=0;" vertex="1" parent="1">
          <mxGeometry x="4" y="900" width="260" height="30" as="geometry" />
        </mxCell>
        <mxCell id="30rDKYGMFZMRvSmP9YPS-36" value="&lt;font style=&quot;font-size: 24px;&quot;&gt;Bejelentkezett szálláskereső felh.&lt;/font&gt;" style="text;html=1;align=center;verticalAlign=middle;whiteSpace=wrap;rounded=0;" vertex="1" parent="1">
          <mxGeometry x="4" y="1400" width="260" height="30" as="geometry" />
        </mxCell>
        <mxCell id="30rDKYGMFZMRvSmP9YPS-37" value="&lt;font style=&quot;font-size: 24px;&quot;&gt;Bejelentkezett admin felh.&lt;/font&gt;" style="text;html=1;align=center;verticalAlign=middle;whiteSpace=wrap;rounded=0;" vertex="1" parent="1">
          <mxGeometry y="1750" width="260" height="30" as="geometry" />
        </mxCell>
        <mxCell id="30rDKYGMFZMRvSmP9YPS-38" value="" style="endArrow=none;html=1;rounded=0;" edge="1" parent="1" target="30rDKYGMFZMRvSmP9YPS-39">
          <mxGeometry width="50" height="50" relative="1" as="geometry">
            <mxPoint x="160" y="170" as="sourcePoint" />
            <mxPoint x="860" y="170" as="targetPoint" />
          </mxGeometry>
        </mxCell>
        <mxCell id="30rDKYGMFZMRvSmP9YPS-39" value="&lt;font style=&quot;font-size: 24px;&quot;&gt;Bejelentkezés&lt;/font&gt;" style="ellipse;whiteSpace=wrap;html=1;" vertex="1" parent="1">
          <mxGeometry x="1050" y="40" width="220" height="130" as="geometry" />
        </mxCell>
        <mxCell id="30rDKYGMFZMRvSmP9YPS-40" value="" style="endArrow=none;html=1;rounded=0;" edge="1" parent="1" target="30rDKYGMFZMRvSmP9YPS-41">
          <mxGeometry width="50" height="50" relative="1" as="geometry">
            <mxPoint x="150" y="170" as="sourcePoint" />
            <mxPoint x="690" y="270" as="targetPoint" />
          </mxGeometry>
        </mxCell>
        <mxCell id="30rDKYGMFZMRvSmP9YPS-41" value="&lt;font style=&quot;font-size: 24px;&quot;&gt;Regisztráció&lt;/font&gt;" style="ellipse;whiteSpace=wrap;html=1;" vertex="1" parent="1">
          <mxGeometry x="840" y="150" width="220" height="120" as="geometry" />
        </mxCell>
        <mxCell id="30rDKYGMFZMRvSmP9YPS-42" value="&lt;font style=&quot;font-size: 24px;&quot;&gt;Meghírdetett szállások listázása&lt;/font&gt;" style="ellipse;whiteSpace=wrap;html=1;" vertex="1" parent="1">
          <mxGeometry x="810" y="290" width="230" height="130" as="geometry" />
        </mxCell>
        <mxCell id="30rDKYGMFZMRvSmP9YPS-43" value="" style="endArrow=none;html=1;rounded=0;entryX=0;entryY=0.5;entryDx=0;entryDy=0;" edge="1" parent="1" target="30rDKYGMFZMRvSmP9YPS-42">
          <mxGeometry width="50" height="50" relative="1" as="geometry">
            <mxPoint x="150" y="170" as="sourcePoint" />
            <mxPoint x="760" y="290" as="targetPoint" />
          </mxGeometry>
        </mxCell>
        <mxCell id="30rDKYGMFZMRvSmP9YPS-44" value="" style="endArrow=none;html=1;rounded=0;entryX=0;entryY=0.5;entryDx=0;entryDy=0;" edge="1" parent="1" target="30rDKYGMFZMRvSmP9YPS-45">
          <mxGeometry width="50" height="50" relative="1" as="geometry">
            <mxPoint x="170" y="800" as="sourcePoint" />
            <mxPoint x="630" y="600" as="targetPoint" />
          </mxGeometry>
        </mxCell>
        <mxCell id="30rDKYGMFZMRvSmP9YPS-45" value="&lt;font style=&quot;font-size: 24px;&quot;&gt;Saját szállás(ok) kezelés&lt;/font&gt;" style="ellipse;whiteSpace=wrap;html=1;" vertex="1" parent="1">
          <mxGeometry x="680" y="520" width="220" height="120" as="geometry" />
        </mxCell>
        <mxCell id="30rDKYGMFZMRvSmP9YPS-47" value="" style="endArrow=none;html=1;rounded=0;entryX=0;entryY=1;entryDx=0;entryDy=0;" edge="1" parent="1" target="30rDKYGMFZMRvSmP9YPS-42">
          <mxGeometry width="50" height="50" relative="1" as="geometry">
            <mxPoint x="170" y="800" as="sourcePoint" />
            <mxPoint x="390" y="760" as="targetPoint" />
          </mxGeometry>
        </mxCell>
        <mxCell id="30rDKYGMFZMRvSmP9YPS-48" value="" style="endArrow=none;dashed=1;html=1;dashPattern=1 3;strokeWidth=2;rounded=0;exitX=0.5;exitY=0;exitDx=0;exitDy=0;entryX=0;entryY=0.5;entryDx=0;entryDy=0;" edge="1" parent="1" source="30rDKYGMFZMRvSmP9YPS-50" target="30rDKYGMFZMRvSmP9YPS-49">
          <mxGeometry width="50" height="50" relative="1" as="geometry">
            <mxPoint x="730" y="720" as="sourcePoint" />
            <mxPoint x="730" y="690" as="targetPoint" />
            <Array as="points">
              <mxPoint x="860" y="710" />
            </Array>
          </mxGeometry>
        </mxCell>
        <mxCell id="30rDKYGMFZMRvSmP9YPS-49" value="" style="triangle;whiteSpace=wrap;html=1;direction=north;" vertex="1" parent="1">
          <mxGeometry x="840" y="630" width="30" height="20" as="geometry" />
        </mxCell>
        <mxCell id="30rDKYGMFZMRvSmP9YPS-50" value="&lt;font style=&quot;font-size: 24px;&quot;&gt;Módosítás&lt;/font&gt;" style="ellipse;whiteSpace=wrap;html=1;" vertex="1" parent="1">
          <mxGeometry x="860" y="710" width="150" height="110" as="geometry" />
        </mxCell>
        <mxCell id="30rDKYGMFZMRvSmP9YPS-54" value="" style="endArrow=none;dashed=1;html=1;dashPattern=1 3;strokeWidth=2;rounded=0;exitX=0.5;exitY=0;exitDx=0;exitDy=0;" edge="1" parent="1" source="30rDKYGMFZMRvSmP9YPS-56" target="30rDKYGMFZMRvSmP9YPS-55">
          <mxGeometry width="50" height="50" relative="1" as="geometry">
            <mxPoint x="750" y="740" as="sourcePoint" />
            <mxPoint x="750" y="710" as="targetPoint" />
            <Array as="points">
              <mxPoint x="695" y="690" />
            </Array>
          </mxGeometry>
        </mxCell>
        <mxCell id="30rDKYGMFZMRvSmP9YPS-55" value="" style="triangle;whiteSpace=wrap;html=1;direction=north;" vertex="1" parent="1">
          <mxGeometry x="680" y="610" width="30" height="20" as="geometry" />
        </mxCell>
        <mxCell id="30rDKYGMFZMRvSmP9YPS-56" value="&lt;font style=&quot;font-size: 24px;&quot;&gt;Listázás&lt;/font&gt;" style="ellipse;whiteSpace=wrap;html=1;" vertex="1" parent="1">
          <mxGeometry x="570" y="690" width="150" height="110" as="geometry" />
        </mxCell>
        <mxCell id="30rDKYGMFZMRvSmP9YPS-58" value="" style="endArrow=none;dashed=1;html=1;dashPattern=1 3;strokeWidth=2;rounded=0;exitX=0.5;exitY=0;exitDx=0;exitDy=0;" edge="1" parent="1" source="30rDKYGMFZMRvSmP9YPS-60" target="30rDKYGMFZMRvSmP9YPS-59">
          <mxGeometry width="50" height="50" relative="1" as="geometry">
            <mxPoint x="760" y="750" as="sourcePoint" />
            <mxPoint x="760" y="720" as="targetPoint" />
          </mxGeometry>
        </mxCell>
        <mxCell id="30rDKYGMFZMRvSmP9YPS-59" value="" style="triangle;whiteSpace=wrap;html=1;direction=north;" vertex="1" parent="1">
          <mxGeometry x="760" y="640" width="30" height="20" as="geometry" />
        </mxCell>
        <mxCell id="30rDKYGMFZMRvSmP9YPS-60" value="&lt;font style=&quot;font-size: 24px;&quot;&gt;Hozzáadás&lt;/font&gt;" style="ellipse;whiteSpace=wrap;html=1;" vertex="1" parent="1">
          <mxGeometry x="700" y="760" width="150" height="110" as="geometry" />
        </mxCell>
        <mxCell id="30rDKYGMFZMRvSmP9YPS-61" value="" style="endArrow=none;dashed=1;html=1;dashPattern=1 3;strokeWidth=2;rounded=0;exitX=0.5;exitY=0;exitDx=0;exitDy=0;entryX=0;entryY=0.5;entryDx=0;entryDy=0;" edge="1" parent="1" source="30rDKYGMFZMRvSmP9YPS-63" target="30rDKYGMFZMRvSmP9YPS-62">
          <mxGeometry width="50" height="50" relative="1" as="geometry">
            <mxPoint x="1070" y="800" as="sourcePoint" />
            <mxPoint x="1070" y="770" as="targetPoint" />
            <Array as="points">
              <mxPoint x="1085" y="620" />
            </Array>
          </mxGeometry>
        </mxCell>
        <mxCell id="30rDKYGMFZMRvSmP9YPS-62" value="" style="triangle;whiteSpace=wrap;html=1;direction=west;" vertex="1" parent="1">
          <mxGeometry x="900" y="600" width="20" height="30" as="geometry" />
        </mxCell>
        <mxCell id="30rDKYGMFZMRvSmP9YPS-63" value="&lt;font style=&quot;font-size: 24px;&quot;&gt;Törlés&lt;/font&gt;" style="ellipse;whiteSpace=wrap;html=1;" vertex="1" parent="1">
          <mxGeometry x="1010" y="790" width="150" height="110" as="geometry" />
        </mxCell>
        <mxCell id="30rDKYGMFZMRvSmP9YPS-64" value="" style="endArrow=none;html=1;rounded=0;" edge="1" parent="1" target="30rDKYGMFZMRvSmP9YPS-65">
          <mxGeometry width="50" height="50" relative="1" as="geometry">
            <mxPoint x="170" y="1300" as="sourcePoint" />
            <mxPoint x="510" y="1130" as="targetPoint" />
          </mxGeometry>
        </mxCell>
        <mxCell id="30rDKYGMFZMRvSmP9YPS-65" value="&lt;font style=&quot;font-size: 24px;&quot;&gt;Meghírdetett szállások lisstázása&lt;/font&gt;" style="ellipse;whiteSpace=wrap;html=1;" vertex="1" parent="1">
          <mxGeometry x="530" y="950" width="230" height="130" as="geometry" />
        </mxCell>
        <mxCell id="30rDKYGMFZMRvSmP9YPS-66" value="" style="endArrow=none;dashed=1;html=1;dashPattern=1 3;strokeWidth=2;rounded=0;" edge="1" parent="1" source="30rDKYGMFZMRvSmP9YPS-70" target="30rDKYGMFZMRvSmP9YPS-69">
          <mxGeometry width="50" height="50" relative="1" as="geometry">
            <mxPoint x="600" y="1090" as="sourcePoint" />
            <mxPoint x="600" y="1080" as="targetPoint" />
          </mxGeometry>
        </mxCell>
        <mxCell id="30rDKYGMFZMRvSmP9YPS-67" value="" style="endArrow=none;html=1;rounded=0;" edge="1" parent="1">
          <mxGeometry width="50" height="50" relative="1" as="geometry">
            <mxPoint x="600" y="1080" as="sourcePoint" />
            <mxPoint x="610" y="1090" as="targetPoint" />
          </mxGeometry>
        </mxCell>
        <mxCell id="30rDKYGMFZMRvSmP9YPS-68" value="" style="endArrow=none;html=1;rounded=0;" edge="1" parent="1">
          <mxGeometry width="50" height="50" relative="1" as="geometry">
            <mxPoint x="590" y="1090" as="sourcePoint" />
            <mxPoint x="600" y="1080" as="targetPoint" />
          </mxGeometry>
        </mxCell>
        <mxCell id="30rDKYGMFZMRvSmP9YPS-69" value="&lt;font style=&quot;font-size: 24px;&quot;&gt;Foglalás&lt;/font&gt;" style="ellipse;whiteSpace=wrap;html=1;" vertex="1" parent="1">
          <mxGeometry x="510" y="1152" width="140" height="89" as="geometry" />
        </mxCell>
        <mxCell id="30rDKYGMFZMRvSmP9YPS-71" value="" style="endArrow=none;dashed=1;html=1;dashPattern=1 3;strokeWidth=2;rounded=0;" edge="1" parent="1" target="30rDKYGMFZMRvSmP9YPS-70">
          <mxGeometry width="50" height="50" relative="1" as="geometry">
            <mxPoint x="600" y="1090" as="sourcePoint" />
            <mxPoint x="588" y="1152" as="targetPoint" />
          </mxGeometry>
        </mxCell>
        <mxCell id="30rDKYGMFZMRvSmP9YPS-70" value="Extend" style="text;html=1;align=center;verticalAlign=middle;whiteSpace=wrap;rounded=0;" vertex="1" parent="1">
          <mxGeometry x="560" y="1110" width="60" height="30" as="geometry" />
        </mxCell>
        <mxCell id="30rDKYGMFZMRvSmP9YPS-72" value="" style="endArrow=none;html=1;rounded=0;" edge="1" parent="1" target="30rDKYGMFZMRvSmP9YPS-73">
          <mxGeometry width="50" height="50" relative="1" as="geometry">
            <mxPoint x="160" y="1300" as="sourcePoint" />
            <mxPoint x="710" y="1260" as="targetPoint" />
            <Array as="points">
              <mxPoint x="600" y="1330" />
            </Array>
          </mxGeometry>
        </mxCell>
        <mxCell id="30rDKYGMFZMRvSmP9YPS-73" value="&lt;font style=&quot;font-size: 24px;&quot;&gt;Foglalás(ok) kezelése&lt;/font&gt;" style="ellipse;whiteSpace=wrap;html=1;" vertex="1" parent="1">
          <mxGeometry x="650" y="1220" width="210" height="130" as="geometry" />
        </mxCell>
        <mxCell id="30rDKYGMFZMRvSmP9YPS-74" value="" style="endArrow=none;dashed=1;html=1;dashPattern=1 3;strokeWidth=2;rounded=0;exitX=0.5;exitY=0;exitDx=0;exitDy=0;entryX=0;entryY=0.5;entryDx=0;entryDy=0;" edge="1" parent="1" source="30rDKYGMFZMRvSmP9YPS-76" target="30rDKYGMFZMRvSmP9YPS-75">
          <mxGeometry width="50" height="50" relative="1" as="geometry">
            <mxPoint x="590" y="1540" as="sourcePoint" />
            <mxPoint x="590" y="1510" as="targetPoint" />
            <Array as="points">
              <mxPoint x="605" y="1490" />
            </Array>
          </mxGeometry>
        </mxCell>
        <mxCell id="30rDKYGMFZMRvSmP9YPS-75" value="" style="triangle;whiteSpace=wrap;html=1;direction=north;" vertex="1" parent="1">
          <mxGeometry x="660" y="1330" width="30" height="20" as="geometry" />
        </mxCell>
        <mxCell id="30rDKYGMFZMRvSmP9YPS-76" value="&lt;font style=&quot;font-size: 24px;&quot;&gt;Listázás&lt;/font&gt;" style="ellipse;whiteSpace=wrap;html=1;" vertex="1" parent="1">
          <mxGeometry x="560" y="1400" width="150" height="110" as="geometry" />
        </mxCell>
        <mxCell id="30rDKYGMFZMRvSmP9YPS-77" value="" style="endArrow=none;dashed=1;html=1;dashPattern=1 3;strokeWidth=2;rounded=0;exitX=0.5;exitY=0;exitDx=0;exitDy=0;entryX=0;entryY=0.5;entryDx=0;entryDy=0;" edge="1" parent="1" source="30rDKYGMFZMRvSmP9YPS-79" target="30rDKYGMFZMRvSmP9YPS-78">
          <mxGeometry width="50" height="50" relative="1" as="geometry">
            <mxPoint x="895" y="1580" as="sourcePoint" />
            <mxPoint x="895" y="1550" as="targetPoint" />
            <Array as="points" />
          </mxGeometry>
        </mxCell>
        <mxCell id="30rDKYGMFZMRvSmP9YPS-78" value="" style="triangle;whiteSpace=wrap;html=1;direction=north;" vertex="1" parent="1">
          <mxGeometry x="730" y="1350" width="30" height="25" as="geometry" />
        </mxCell>
        <mxCell id="30rDKYGMFZMRvSmP9YPS-79" value="&lt;font style=&quot;font-size: 24px;&quot;&gt;Módosítás&lt;/font&gt;" style="ellipse;whiteSpace=wrap;html=1;" vertex="1" parent="1">
          <mxGeometry x="700" y="1450" width="150" height="110" as="geometry" />
        </mxCell>
        <mxCell id="30rDKYGMFZMRvSmP9YPS-80" value="" style="endArrow=none;dashed=1;html=1;dashPattern=1 3;strokeWidth=2;rounded=0;exitX=0.5;exitY=0;exitDx=0;exitDy=0;entryX=0;entryY=0.5;entryDx=0;entryDy=0;" edge="1" parent="1" source="30rDKYGMFZMRvSmP9YPS-82" target="30rDKYGMFZMRvSmP9YPS-81">
          <mxGeometry width="50" height="50" relative="1" as="geometry">
            <mxPoint x="930" y="1460" as="sourcePoint" />
            <mxPoint x="930" y="1430" as="targetPoint" />
            <Array as="points">
              <mxPoint x="900" y="1420" />
            </Array>
          </mxGeometry>
        </mxCell>
        <mxCell id="30rDKYGMFZMRvSmP9YPS-81" value="" style="triangle;whiteSpace=wrap;html=1;direction=north;" vertex="1" parent="1">
          <mxGeometry x="810" y="1340" width="30" height="20" as="geometry" />
        </mxCell>
        <mxCell id="30rDKYGMFZMRvSmP9YPS-82" value="&lt;font style=&quot;font-size: 24px;&quot;&gt;Törlés&lt;/font&gt;" style="ellipse;whiteSpace=wrap;html=1;" vertex="1" parent="1">
          <mxGeometry x="870" y="1450" width="150" height="110" as="geometry" />
        </mxCell>
        <mxCell id="30rDKYGMFZMRvSmP9YPS-86" value="" style="endArrow=none;html=1;rounded=0;" edge="1" parent="1">
          <mxGeometry width="50" height="50" relative="1" as="geometry">
            <mxPoint x="170" y="1640" as="sourcePoint" />
            <mxPoint x="559.1245499093193" y="1809.1845869170957" as="targetPoint" />
          </mxGeometry>
        </mxCell>
        <mxCell id="30rDKYGMFZMRvSmP9YPS-88" value="&lt;font style=&quot;font-size: 24px;&quot;&gt;Profilok kezelése&lt;/font&gt;" style="ellipse;whiteSpace=wrap;html=1;" vertex="1" parent="1">
          <mxGeometry x="555" y="1754" width="210" height="130" as="geometry" />
        </mxCell>
        <mxCell id="30rDKYGMFZMRvSmP9YPS-92" value="" style="endArrow=none;dashed=1;html=1;dashPattern=1 3;strokeWidth=2;rounded=0;exitX=0.5;exitY=0;exitDx=0;exitDy=0;entryX=0;entryY=0.5;entryDx=0;entryDy=0;" edge="1" parent="1" source="30rDKYGMFZMRvSmP9YPS-94" target="30rDKYGMFZMRvSmP9YPS-93">
          <mxGeometry width="50" height="50" relative="1" as="geometry">
            <mxPoint x="800" y="2114" as="sourcePoint" />
            <mxPoint x="800" y="2084" as="targetPoint" />
            <Array as="points" />
          </mxGeometry>
        </mxCell>
        <mxCell id="30rDKYGMFZMRvSmP9YPS-93" value="" style="triangle;whiteSpace=wrap;html=1;direction=north;" vertex="1" parent="1">
          <mxGeometry x="635" y="1884" width="30" height="25" as="geometry" />
        </mxCell>
        <mxCell id="30rDKYGMFZMRvSmP9YPS-94" value="&lt;font style=&quot;font-size: 24px;&quot;&gt;Módosítás&lt;/font&gt;" style="ellipse;whiteSpace=wrap;html=1;" vertex="1" parent="1">
          <mxGeometry x="605" y="1984" width="150" height="110" as="geometry" />
        </mxCell>
        <mxCell id="30rDKYGMFZMRvSmP9YPS-95" value="" style="endArrow=none;dashed=1;html=1;dashPattern=1 3;strokeWidth=2;rounded=0;exitX=0.5;exitY=0;exitDx=0;exitDy=0;entryX=0;entryY=0.5;entryDx=0;entryDy=0;" edge="1" parent="1" source="30rDKYGMFZMRvSmP9YPS-97" target="30rDKYGMFZMRvSmP9YPS-96">
          <mxGeometry width="50" height="50" relative="1" as="geometry">
            <mxPoint x="835" y="1994" as="sourcePoint" />
            <mxPoint x="835" y="1964" as="targetPoint" />
            <Array as="points">
              <mxPoint x="805" y="1954" />
            </Array>
          </mxGeometry>
        </mxCell>
        <mxCell id="30rDKYGMFZMRvSmP9YPS-96" value="" style="triangle;whiteSpace=wrap;html=1;direction=north;" vertex="1" parent="1">
          <mxGeometry x="715" y="1874" width="30" height="20" as="geometry" />
        </mxCell>
        <mxCell id="30rDKYGMFZMRvSmP9YPS-97" value="&lt;font style=&quot;font-size: 24px;&quot;&gt;Törlés&lt;/font&gt;" style="ellipse;whiteSpace=wrap;html=1;" vertex="1" parent="1">
          <mxGeometry x="775" y="1984" width="150" height="110" as="geometry" />
        </mxCell>
        <mxCell id="30rDKYGMFZMRvSmP9YPS-98" value="" style="endArrow=none;html=1;rounded=0;entryX=0;entryY=0;entryDx=0;entryDy=0;" edge="1" parent="1" target="30rDKYGMFZMRvSmP9YPS-100">
          <mxGeometry width="50" height="50" relative="1" as="geometry">
            <mxPoint x="170" y="800" as="sourcePoint" />
            <mxPoint x="960" y="1000" as="targetPoint" />
          </mxGeometry>
        </mxCell>
        <mxCell id="30rDKYGMFZMRvSmP9YPS-99" value="" style="endArrow=none;html=1;rounded=0;entryX=0;entryY=0.5;entryDx=0;entryDy=0;" edge="1" parent="1" target="30rDKYGMFZMRvSmP9YPS-100">
          <mxGeometry width="50" height="50" relative="1" as="geometry">
            <mxPoint x="180" y="1300" as="sourcePoint" />
            <mxPoint x="960" y="1060" as="targetPoint" />
            <Array as="points">
              <mxPoint x="610" y="1270" />
            </Array>
          </mxGeometry>
        </mxCell>
        <mxCell id="30rDKYGMFZMRvSmP9YPS-100" value="&lt;font style=&quot;font-size: 24px;&quot;&gt;Érékelések kezelése&lt;/font&gt;" style="ellipse;whiteSpace=wrap;html=1;" vertex="1" parent="1">
          <mxGeometry x="950" y="970" width="200" height="130" as="geometry" />
        </mxCell>
        <mxCell id="30rDKYGMFZMRvSmP9YPS-109" value="" style="endArrow=none;dashed=1;html=1;dashPattern=1 3;strokeWidth=2;rounded=0;exitX=0.5;exitY=0;exitDx=0;exitDy=0;entryX=0;entryY=0.5;entryDx=0;entryDy=0;" edge="1" parent="1" source="30rDKYGMFZMRvSmP9YPS-111" target="30rDKYGMFZMRvSmP9YPS-110">
          <mxGeometry width="50" height="50" relative="1" as="geometry">
            <mxPoint x="960" y="1185" as="sourcePoint" />
            <mxPoint x="960" y="1155" as="targetPoint" />
            <Array as="points">
              <mxPoint x="1090" y="1175" />
            </Array>
          </mxGeometry>
        </mxCell>
        <mxCell id="30rDKYGMFZMRvSmP9YPS-110" value="" style="triangle;whiteSpace=wrap;html=1;direction=north;" vertex="1" parent="1">
          <mxGeometry x="1070" y="1095" width="30" height="20" as="geometry" />
        </mxCell>
        <mxCell id="30rDKYGMFZMRvSmP9YPS-111" value="&lt;font style=&quot;font-size: 24px;&quot;&gt;Módosítás&lt;/font&gt;" style="ellipse;whiteSpace=wrap;html=1;" vertex="1" parent="1">
          <mxGeometry x="1090" y="1175" width="150" height="110" as="geometry" />
        </mxCell>
        <mxCell id="30rDKYGMFZMRvSmP9YPS-112" value="" style="endArrow=none;dashed=1;html=1;dashPattern=1 3;strokeWidth=2;rounded=0;exitX=0.5;exitY=0;exitDx=0;exitDy=0;" edge="1" parent="1" source="30rDKYGMFZMRvSmP9YPS-114" target="30rDKYGMFZMRvSmP9YPS-113">
          <mxGeometry width="50" height="50" relative="1" as="geometry">
            <mxPoint x="990" y="1215" as="sourcePoint" />
            <mxPoint x="990" y="1185" as="targetPoint" />
          </mxGeometry>
        </mxCell>
        <mxCell id="30rDKYGMFZMRvSmP9YPS-113" value="" style="triangle;whiteSpace=wrap;html=1;direction=north;" vertex="1" parent="1">
          <mxGeometry x="990" y="1105" width="30" height="20" as="geometry" />
        </mxCell>
        <mxCell id="30rDKYGMFZMRvSmP9YPS-114" value="&lt;font style=&quot;font-size: 24px;&quot;&gt;Hozzáadás&lt;/font&gt;" style="ellipse;whiteSpace=wrap;html=1;" vertex="1" parent="1">
          <mxGeometry x="930" y="1225" width="150" height="110" as="geometry" />
        </mxCell>
        <mxCell id="30rDKYGMFZMRvSmP9YPS-115" value="" style="endArrow=none;dashed=1;html=1;dashPattern=1 3;strokeWidth=2;rounded=0;exitX=0.5;exitY=0;exitDx=0;exitDy=0;entryX=0;entryY=0.5;entryDx=0;entryDy=0;" edge="1" parent="1" source="30rDKYGMFZMRvSmP9YPS-117">
          <mxGeometry width="50" height="50" relative="1" as="geometry">
            <mxPoint x="1300" y="1265" as="sourcePoint" />
            <mxPoint x="1150" y="1080" as="targetPoint" />
            <Array as="points" />
          </mxGeometry>
        </mxCell>
        <mxCell id="30rDKYGMFZMRvSmP9YPS-116" value="&lt;font style=&quot;font-size: 24px;&quot;&gt;Törlés&lt;/font&gt;" style="ellipse;whiteSpace=wrap;html=1;" vertex="1" parent="1">
          <mxGeometry x="1240" y="1255" width="150" height="110" as="geometry" />
        </mxCell>
        <mxCell id="30rDKYGMFZMRvSmP9YPS-118" value="" style="endArrow=none;dashed=1;html=1;dashPattern=1 3;strokeWidth=2;rounded=0;exitX=0.5;exitY=0;exitDx=0;exitDy=0;entryX=0;entryY=0.5;entryDx=0;entryDy=0;" edge="1" parent="1" source="30rDKYGMFZMRvSmP9YPS-116" target="30rDKYGMFZMRvSmP9YPS-117">
          <mxGeometry width="50" height="50" relative="1" as="geometry">
            <mxPoint x="1315" y="1255" as="sourcePoint" />
            <mxPoint x="1150" y="1080" as="targetPoint" />
            <Array as="points">
              <mxPoint x="1315" y="1085" />
            </Array>
          </mxGeometry>
        </mxCell>
        <mxCell id="30rDKYGMFZMRvSmP9YPS-117" value="" style="triangle;whiteSpace=wrap;html=1;direction=west;" vertex="1" parent="1">
          <mxGeometry x="1120" y="1065" width="30" height="30" as="geometry" />
        </mxCell>
        <mxCell id="30rDKYGMFZMRvSmP9YPS-119" value="" style="endArrow=none;html=1;rounded=0;" edge="1" parent="1" target="30rDKYGMFZMRvSmP9YPS-120">
          <mxGeometry width="50" height="50" relative="1" as="geometry">
            <mxPoint x="2230" y="960" as="sourcePoint" />
            <mxPoint x="2230" y="960" as="targetPoint" />
          </mxGeometry>
        </mxCell>
        <mxCell id="30rDKYGMFZMRvSmP9YPS-120" value="&lt;font style=&quot;font-size: 24px;&quot;&gt;Adatkezelés&lt;/font&gt;" style="ellipse;whiteSpace=wrap;html=1;" vertex="1" parent="1">
          <mxGeometry x="1890" y="870" width="178" height="130" as="geometry" />
        </mxCell>
        <mxCell id="30rDKYGMFZMRvSmP9YPS-121" value="" style="endArrow=none;dashed=1;html=1;dashPattern=1 3;strokeWidth=2;rounded=0;entryX=1;entryY=0;entryDx=0;entryDy=0;exitX=1;exitY=0.5;exitDx=0;exitDy=0;" edge="1" parent="1" source="30rDKYGMFZMRvSmP9YPS-39" target="30rDKYGMFZMRvSmP9YPS-120">
          <mxGeometry width="50" height="50" relative="1" as="geometry">
            <mxPoint x="1430" y="330" as="sourcePoint" />
            <mxPoint x="1880" y="840" as="targetPoint" />
            <Array as="points">
              <mxPoint x="2030" y="105" />
            </Array>
          </mxGeometry>
        </mxCell>
        <mxCell id="30rDKYGMFZMRvSmP9YPS-124" value="" style="endArrow=none;html=1;rounded=0;exitX=1;exitY=0;exitDx=0;exitDy=0;" edge="1" parent="1" source="30rDKYGMFZMRvSmP9YPS-120">
          <mxGeometry width="50" height="50" relative="1" as="geometry">
            <mxPoint x="1740" y="960" as="sourcePoint" />
            <mxPoint x="2070" y="860" as="targetPoint" />
          </mxGeometry>
        </mxCell>
        <mxCell id="30rDKYGMFZMRvSmP9YPS-125" value="" style="endArrow=none;html=1;rounded=0;entryX=1;entryY=0;entryDx=0;entryDy=0;" edge="1" parent="1" target="30rDKYGMFZMRvSmP9YPS-120">
          <mxGeometry width="50" height="50" relative="1" as="geometry">
            <mxPoint x="2020" y="850" as="sourcePoint" />
            <mxPoint x="1990" y="780" as="targetPoint" />
          </mxGeometry>
        </mxCell>
        <mxCell id="30rDKYGMFZMRvSmP9YPS-126" value="&lt;font style=&quot;font-size: 24px;&quot;&gt;Include&lt;/font&gt;" style="text;html=1;align=center;verticalAlign=middle;whiteSpace=wrap;rounded=0;" vertex="1" parent="1">
          <mxGeometry x="2008" y="480" width="60" height="30" as="geometry" />
        </mxCell>
        <mxCell id="30rDKYGMFZMRvSmP9YPS-127" value="" style="endArrow=none;dashed=1;html=1;dashPattern=1 3;strokeWidth=2;rounded=0;exitX=1;exitY=0.5;exitDx=0;exitDy=0;entryX=0.5;entryY=0;entryDx=0;entryDy=0;" edge="1" parent="1" source="30rDKYGMFZMRvSmP9YPS-41" target="30rDKYGMFZMRvSmP9YPS-120">
          <mxGeometry width="50" height="50" relative="1" as="geometry">
            <mxPoint x="1650" y="980" as="sourcePoint" />
            <mxPoint x="1700" y="930" as="targetPoint" />
            <Array as="points">
              <mxPoint x="1970" y="220" />
            </Array>
          </mxGeometry>
        </mxCell>
        <mxCell id="30rDKYGMFZMRvSmP9YPS-128" value="" style="endArrow=none;html=1;rounded=0;exitX=0.5;exitY=0;exitDx=0;exitDy=0;" edge="1" parent="1" source="30rDKYGMFZMRvSmP9YPS-120">
          <mxGeometry width="50" height="50" relative="1" as="geometry">
            <mxPoint x="1950" y="780" as="sourcePoint" />
            <mxPoint x="2000" y="840" as="targetPoint" />
          </mxGeometry>
        </mxCell>
        <mxCell id="30rDKYGMFZMRvSmP9YPS-129" value="" style="endArrow=none;html=1;rounded=0;exitX=0.5;exitY=0;exitDx=0;exitDy=0;" edge="1" parent="1" source="30rDKYGMFZMRvSmP9YPS-120">
          <mxGeometry width="50" height="50" relative="1" as="geometry">
            <mxPoint x="1950" y="780" as="sourcePoint" />
            <mxPoint x="1960" y="850" as="targetPoint" />
          </mxGeometry>
        </mxCell>
        <mxCell id="30rDKYGMFZMRvSmP9YPS-130" value="&lt;font style=&quot;font-size: 24px;&quot;&gt;Include&lt;/font&gt;" style="text;html=1;align=center;verticalAlign=middle;whiteSpace=wrap;rounded=0;" vertex="1" parent="1">
          <mxGeometry x="1940" y="260" width="60" height="30" as="geometry" />
        </mxCell>
        <mxCell id="30rDKYGMFZMRvSmP9YPS-132" value="" style="endArrow=none;dashed=1;html=1;dashPattern=1 3;strokeWidth=2;rounded=0;exitX=1;exitY=0.5;exitDx=0;exitDy=0;entryX=0.287;entryY=0.077;entryDx=0;entryDy=0;entryPerimeter=0;" edge="1" parent="1" source="30rDKYGMFZMRvSmP9YPS-42" target="30rDKYGMFZMRvSmP9YPS-120">
          <mxGeometry width="50" height="50" relative="1" as="geometry">
            <mxPoint x="1310" y="700" as="sourcePoint" />
            <mxPoint x="1360" y="650" as="targetPoint" />
            <Array as="points">
              <mxPoint x="1930" y="355" />
            </Array>
          </mxGeometry>
        </mxCell>
        <mxCell id="30rDKYGMFZMRvSmP9YPS-133" value="" style="endArrow=none;html=1;rounded=0;" edge="1" parent="1">
          <mxGeometry width="50" height="50" relative="1" as="geometry">
            <mxPoint x="1940" y="880" as="sourcePoint" />
            <mxPoint x="1960" y="850" as="targetPoint" />
          </mxGeometry>
        </mxCell>
        <mxCell id="30rDKYGMFZMRvSmP9YPS-134" value="" style="endArrow=none;html=1;rounded=0;" edge="1" parent="1" source="30rDKYGMFZMRvSmP9YPS-120">
          <mxGeometry width="50" height="50" relative="1" as="geometry">
            <mxPoint x="1740" y="700" as="sourcePoint" />
            <mxPoint x="1920" y="850" as="targetPoint" />
          </mxGeometry>
        </mxCell>
        <mxCell id="30rDKYGMFZMRvSmP9YPS-135" value="&lt;font style=&quot;font-size: 24px;&quot;&gt;Include&lt;/font&gt;" style="text;html=1;align=center;verticalAlign=middle;whiteSpace=wrap;rounded=0;" vertex="1" parent="1">
          <mxGeometry x="1900" y="400" width="60" height="30" as="geometry" />
        </mxCell>
        <mxCell id="30rDKYGMFZMRvSmP9YPS-138" value="" style="endArrow=none;dashed=1;html=1;dashPattern=1 3;strokeWidth=2;rounded=0;exitX=1;exitY=0.5;exitDx=0;exitDy=0;" edge="1" parent="1" source="30rDKYGMFZMRvSmP9YPS-45" target="30rDKYGMFZMRvSmP9YPS-120">
          <mxGeometry width="50" height="50" relative="1" as="geometry">
            <mxPoint x="1290" y="770" as="sourcePoint" />
            <mxPoint x="1340" y="720" as="targetPoint" />
            <Array as="points">
              <mxPoint x="1250" y="580" />
            </Array>
          </mxGeometry>
        </mxCell>
        <mxCell id="30rDKYGMFZMRvSmP9YPS-139" value="" style="endArrow=none;html=1;rounded=0;exitX=0.062;exitY=0.262;exitDx=0;exitDy=0;exitPerimeter=0;" edge="1" parent="1" source="30rDKYGMFZMRvSmP9YPS-120">
          <mxGeometry width="50" height="50" relative="1" as="geometry">
            <mxPoint x="1290" y="770" as="sourcePoint" />
            <mxPoint x="1860" y="904" as="targetPoint" />
          </mxGeometry>
        </mxCell>
        <mxCell id="30rDKYGMFZMRvSmP9YPS-140" value="" style="endArrow=none;html=1;rounded=0;" edge="1" parent="1">
          <mxGeometry width="50" height="50" relative="1" as="geometry">
            <mxPoint x="1900" y="900" as="sourcePoint" />
            <mxPoint x="1900" y="860" as="targetPoint" />
          </mxGeometry>
        </mxCell>
        <mxCell id="30rDKYGMFZMRvSmP9YPS-141" value="&lt;font style=&quot;font-size: 24px;&quot;&gt;Include&lt;/font&gt;" style="text;html=1;align=center;verticalAlign=middle;whiteSpace=wrap;rounded=0;" vertex="1" parent="1">
          <mxGeometry x="1470" y="680" width="60" height="30" as="geometry" />
        </mxCell>
        <mxCell id="30rDKYGMFZMRvSmP9YPS-142" value="" style="endArrow=none;dashed=1;html=1;dashPattern=1 3;strokeWidth=2;rounded=0;exitX=1;exitY=0;exitDx=0;exitDy=0;" edge="1" parent="1" source="30rDKYGMFZMRvSmP9YPS-65">
          <mxGeometry width="50" height="50" relative="1" as="geometry">
            <mxPoint x="1200" y="910" as="sourcePoint" />
            <mxPoint x="1880" y="940" as="targetPoint" />
            <Array as="points">
              <mxPoint x="1220" y="940" />
            </Array>
          </mxGeometry>
        </mxCell>
        <mxCell id="30rDKYGMFZMRvSmP9YPS-143" value="" style="endArrow=none;html=1;rounded=0;entryX=0;entryY=0.5;entryDx=0;entryDy=0;" edge="1" parent="1" target="30rDKYGMFZMRvSmP9YPS-120">
          <mxGeometry width="50" height="50" relative="1" as="geometry">
            <mxPoint x="1870" y="960" as="sourcePoint" />
            <mxPoint x="1540" y="860" as="targetPoint" />
          </mxGeometry>
        </mxCell>
        <mxCell id="30rDKYGMFZMRvSmP9YPS-144" value="" style="endArrow=none;html=1;rounded=0;" edge="1" parent="1">
          <mxGeometry width="50" height="50" relative="1" as="geometry">
            <mxPoint x="1860" y="930" as="sourcePoint" />
            <mxPoint x="1890" y="940" as="targetPoint" />
          </mxGeometry>
        </mxCell>
        <mxCell id="30rDKYGMFZMRvSmP9YPS-145" value="&lt;font style=&quot;font-size: 24px;&quot;&gt;Include&lt;/font&gt;" style="text;html=1;align=center;verticalAlign=middle;whiteSpace=wrap;rounded=0;rotation=270;" vertex="1" parent="1">
          <mxGeometry x="1490" y="923" width="60" height="30" as="geometry" />
        </mxCell>
        <mxCell id="30rDKYGMFZMRvSmP9YPS-149" value="" style="endArrow=none;dashed=1;html=1;dashPattern=1 3;strokeWidth=2;rounded=0;exitX=1;exitY=0.5;exitDx=0;exitDy=0;entryX=0;entryY=1;entryDx=0;entryDy=0;" edge="1" parent="1" source="30rDKYGMFZMRvSmP9YPS-100" target="30rDKYGMFZMRvSmP9YPS-120">
          <mxGeometry width="50" height="50" relative="1" as="geometry">
            <mxPoint x="1600" y="760" as="sourcePoint" />
            <mxPoint x="1650" y="710" as="targetPoint" />
          </mxGeometry>
        </mxCell>
        <mxCell id="30rDKYGMFZMRvSmP9YPS-150" value="" style="endArrow=none;html=1;rounded=0;entryX=0;entryY=1;entryDx=0;entryDy=0;" edge="1" parent="1">
          <mxGeometry width="50" height="50" relative="1" as="geometry">
            <mxPoint x="1880" y="970" as="sourcePoint" />
            <mxPoint x="1910.8371322486319" y="979.7930791197423" as="targetPoint" />
          </mxGeometry>
        </mxCell>
        <mxCell id="30rDKYGMFZMRvSmP9YPS-151" value="" style="endArrow=none;html=1;rounded=0;" edge="1" parent="1">
          <mxGeometry width="50" height="50" relative="1" as="geometry">
            <mxPoint x="1891" y="1002" as="sourcePoint" />
            <mxPoint x="1911" y="982" as="targetPoint" />
            <Array as="points">
              <mxPoint x="1891" y="1002" />
            </Array>
          </mxGeometry>
        </mxCell>
        <mxCell id="30rDKYGMFZMRvSmP9YPS-152" value="&lt;font style=&quot;font-size: 24px;&quot;&gt;Include&lt;/font&gt;" style="text;html=1;align=center;verticalAlign=middle;whiteSpace=wrap;rounded=0;rotation=270;" vertex="1" parent="1">
          <mxGeometry x="1600" y="997" width="60" height="30" as="geometry" />
        </mxCell>
        <mxCell id="30rDKYGMFZMRvSmP9YPS-153" value="" style="endArrow=none;dashed=1;html=1;dashPattern=1 3;strokeWidth=2;rounded=0;exitX=1;exitY=0.5;exitDx=0;exitDy=0;entryX=0.41;entryY=0.985;entryDx=0;entryDy=0;entryPerimeter=0;" edge="1" parent="1" source="30rDKYGMFZMRvSmP9YPS-73" target="30rDKYGMFZMRvSmP9YPS-120">
          <mxGeometry width="50" height="50" relative="1" as="geometry">
            <mxPoint x="1160" y="1270" as="sourcePoint" />
            <mxPoint x="1210" y="1220" as="targetPoint" />
            <Array as="points">
              <mxPoint x="1150" y="1510" />
              <mxPoint x="1960" y="1510" />
            </Array>
          </mxGeometry>
        </mxCell>
        <mxCell id="30rDKYGMFZMRvSmP9YPS-154" value="" style="endArrow=none;html=1;rounded=0;" edge="1" parent="1">
          <mxGeometry width="50" height="50" relative="1" as="geometry">
            <mxPoint x="1940" y="1030" as="sourcePoint" />
            <mxPoint x="1960" y="1000" as="targetPoint" />
          </mxGeometry>
        </mxCell>
        <mxCell id="30rDKYGMFZMRvSmP9YPS-155" value="" style="endArrow=none;html=1;rounded=0;" edge="1" parent="1">
          <mxGeometry width="50" height="50" relative="1" as="geometry">
            <mxPoint x="1980" y="1030" as="sourcePoint" />
            <mxPoint x="1960" y="1000" as="targetPoint" />
          </mxGeometry>
        </mxCell>
        <mxCell id="30rDKYGMFZMRvSmP9YPS-156" value="&lt;font style=&quot;font-size: 24px;&quot;&gt;Include&lt;/font&gt;" style="text;html=1;align=center;verticalAlign=middle;whiteSpace=wrap;rounded=0;rotation=270;" vertex="1" parent="1">
          <mxGeometry x="1590" y="1497" width="60" height="30" as="geometry" />
        </mxCell>
        <mxCell id="30rDKYGMFZMRvSmP9YPS-157" value="" style="endArrow=none;dashed=1;html=1;dashPattern=1 3;strokeWidth=2;rounded=0;exitX=1;exitY=0.5;exitDx=0;exitDy=0;entryX=1;entryY=1;entryDx=0;entryDy=0;" edge="1" parent="1" source="30rDKYGMFZMRvSmP9YPS-88" target="30rDKYGMFZMRvSmP9YPS-120">
          <mxGeometry width="50" height="50" relative="1" as="geometry">
            <mxPoint x="1260" y="1190" as="sourcePoint" />
            <mxPoint x="1310" y="1140" as="targetPoint" />
            <Array as="points">
              <mxPoint x="2042" y="1819" />
            </Array>
          </mxGeometry>
        </mxCell>
        <mxCell id="30rDKYGMFZMRvSmP9YPS-158" value="" style="endArrow=none;html=1;rounded=0;entryX=1;entryY=1;entryDx=0;entryDy=0;" edge="1" parent="1" target="30rDKYGMFZMRvSmP9YPS-120">
          <mxGeometry width="50" height="50" relative="1" as="geometry">
            <mxPoint x="2020" y="1010" as="sourcePoint" />
            <mxPoint x="1610" y="1070" as="targetPoint" />
          </mxGeometry>
        </mxCell>
        <mxCell id="30rDKYGMFZMRvSmP9YPS-159" value="" style="endArrow=none;html=1;rounded=0;" edge="1" parent="1">
          <mxGeometry width="50" height="50" relative="1" as="geometry">
            <mxPoint x="2063" y="1004" as="sourcePoint" />
            <mxPoint x="2043" y="984" as="targetPoint" />
          </mxGeometry>
        </mxCell>
        <mxCell id="30rDKYGMFZMRvSmP9YPS-160" value="&lt;font style=&quot;font-size: 24px;&quot;&gt;Include&lt;/font&gt;" style="text;html=1;align=center;verticalAlign=middle;whiteSpace=wrap;rounded=0;" vertex="1" parent="1">
          <mxGeometry x="2019" y="1649" width="60" height="30" as="geometry" />
        </mxCell>
      </root>
    </mxGraphModel>
  </diagram>
</mxfile>
